<svg xmlns="http://www.w3.org/2000/svg" width="1200" height="700" viewBox="0 0 1200 700" fill="none">
  <rect width="1200" height="700" fill="#0b1e36"/>
  <rect x="90" y="80" width="1020" height="540" rx="18" fill="#112240" stroke="#233554" stroke-width="2"/>
  <rect x="90" y="80" width="1020" height="70" fill="#0f2744"/>
  <rect x="130" y="105" width="120" height="20" rx="4" fill="#64ffda" fill-opacity="0.8"/>
  <rect x="720" y="100" width="80" height="30" rx="6" fill="#233554"/>
  <rect x="820" y="100" width="80" height="30" rx="6" fill="#233554"/>
  <rect x="920" y="100" width="140" height="30" rx="6" fill="#64ffda" fill-opacity="0.25" stroke="#64ffda"/>
  <rect x="130" y="190" width="280" height="340" rx="14" fill="#0a192f" stroke="#233554"/>
  <rect x="150" y="210" width="240" height="160" rx="10" fill="#1a365d"/>
  <rect x="150" y="390" width="160" height="16" rx="4" fill="#ccd6f6"/>
  <rect x="150" y="420" width="220" height="10" rx="3" fill="#8892b0" fill-opacity="0.5"/>
  <rect x="150" y="450" width="100" height="28" rx="6" fill="#64ffda" fill-opacity="0.3"/>
  <rect x="450" y="190" width="280" height="340" rx="14" fill="#0a192f" stroke="#233554"/>
  <rect x="470" y="210" width="240" height="160" rx="10" fill="#1a365d"/>
  <rect x="470" y="390" width="160" height="16" rx="4" fill="#ccd6f6"/>
  <rect x="470" y="420" width="220" height="10" rx="3" fill="#8892b0" fill-opacity="0.5"/>
  <rect x="470" y="450" width="100" height="28" rx="6" fill="#64ffda" fill-opacity="0.3"/>
  <rect x="770" y="190" width="280" height="340" rx="14" fill="#0a192f" stroke="#233554"/>
  <rect x="790" y="210" width="240" height="160" rx="10" fill="#1a365d"/>
  <rect x="790" y="390" width="160" height="16" rx="4" fill="#ccd6f6"/>
  <rect x="790" y="420" width="220" height="10" rx="3" fill="#8892b0" fill-opacity="0.5"/>
  <rect x="790" y="450" width="100" height="28" rx="6" fill="#64ffda" fill-opacity="0.3"/>
  <text x="540" y="660" fill="#64ffda" font-family="ui-monospace, monospace" font-size="22" opacity="0.8">Commerce</text>
</svg>
