<svg xmlns="http://www.w3.org/2000/svg" width="1200" height="700" viewBox="0 0 1200 700" fill="none">
  <rect width="1200" height="700" fill="#0c203a"/>
  <rect x="100" y="90" width="1000" height="520" rx="18" fill="#112240" stroke="#233554" stroke-width="2"/>
  <rect x="140" y="130" width="420" height="440" rx="14" fill="#0a192f" stroke="#233554"/>
  <rect x="170" y="170" width="240" height="28" rx="6" fill="#e6f1ff" fill-opacity="0.9"/>
  <rect x="170" y="220" width="360" height="12" rx="3" fill="#8892b0" fill-opacity="0.45"/>
  <rect x="170" y="246" width="320" height="12" rx="3" fill="#8892b0" fill-opacity="0.3"/>
  <rect x="170" y="300" width="160" height="90" rx="12" fill="#112240" stroke="#64ffda" stroke-opacity="0.5"/>
  <rect x="350" y="300" width="160" height="90" rx="12" fill="#112240" stroke="#64ffda" stroke-opacity="0.3"/>
  <rect x="170" y="420" width="360" height="100" rx="12" fill="#0f2744"/>
  <rect x="600" y="130" width="460" height="200" rx="14" fill="#0a192f" stroke="#233554"/>
  <circle cx="830" cy="230" r="55" fill="#64ffda" fill-opacity="0.15" stroke="#64ffda" stroke-opacity="0.6"/>
  <path d="M830 195 v70 M795 230 h70" stroke="#64ffda" stroke-width="4" stroke-linecap="round"/>
  <rect x="600" y="360" width="220" height="210" rx="14" fill="#0a192f" stroke="#233554"/>
  <rect x="840" y="360" width="220" height="210" rx="14" fill="#0a192f" stroke="#233554"/>
  <rect x="630" y="400" width="160" height="14" rx="4" fill="#ccd6f6"/>
  <rect x="630" y="430" width="160" height="10" rx="3" fill="#8892b0" fill-opacity="0.4"/>
  <rect x="630" y="460" width="100" height="28" rx="6" fill="#64ffda" fill-opacity="0.25"/>
  <rect x="870" y="400" width="160" height="14" rx="4" fill="#ccd6f6"/>
  <rect x="870" y="430" width="160" height="10" rx="3" fill="#8892b0" fill-opacity="0.4"/>
  <rect x="870" y="460" width="100" height="28" rx="6" fill="#64ffda" fill-opacity="0.25"/>
  <text x="540" y="660" fill="#64ffda" font-family="ui-monospace, monospace" font-size="22" opacity="0.8">Eventics</text>
</svg>
